G04 #@! TF.FileFunction,Legend,Top*
%FSLAX46Y46*%
G04 Gerber Fmt 4.6, Leading zero omitted, Abs format (unit mm)*
G04 Created by KiCad (PCBNEW (2015-10-28 BZR 6285)-product) date Saturday, November 07, 2015 'PMt' 08:05:49 PM*
%MOMM*%
G01*
G04 APERTURE LIST*
%ADD10C,0.100000*%
%ADD11C,0.250000*%
%ADD12C,0.200000*%
%ADD13C,0.150000*%
%ADD14C,0.203200*%
G04 APERTURE END LIST*
D10*
D11*
X114724476Y-109612381D02*
X114962571Y-110612381D01*
X115153048Y-109898095D01*
X115343524Y-110612381D01*
X115581619Y-109612381D01*
X115914952Y-110564762D02*
X116057809Y-110612381D01*
X116295905Y-110612381D01*
X116391143Y-110564762D01*
X116438762Y-110517143D01*
X116486381Y-110421905D01*
X116486381Y-110326667D01*
X116438762Y-110231429D01*
X116391143Y-110183810D01*
X116295905Y-110136190D01*
X116105428Y-110088571D01*
X116010190Y-110040952D01*
X115962571Y-109993333D01*
X115914952Y-109898095D01*
X115914952Y-109802857D01*
X115962571Y-109707619D01*
X116010190Y-109660000D01*
X116105428Y-109612381D01*
X116343524Y-109612381D01*
X116486381Y-109660000D01*
X116867333Y-109707619D02*
X116914952Y-109660000D01*
X117010190Y-109612381D01*
X117248286Y-109612381D01*
X117343524Y-109660000D01*
X117391143Y-109707619D01*
X117438762Y-109802857D01*
X117438762Y-109898095D01*
X117391143Y-110040952D01*
X116819714Y-110612381D01*
X117438762Y-110612381D01*
X118010190Y-110040952D02*
X117914952Y-109993333D01*
X117867333Y-109945714D01*
X117819714Y-109850476D01*
X117819714Y-109802857D01*
X117867333Y-109707619D01*
X117914952Y-109660000D01*
X118010190Y-109612381D01*
X118200667Y-109612381D01*
X118295905Y-109660000D01*
X118343524Y-109707619D01*
X118391143Y-109802857D01*
X118391143Y-109850476D01*
X118343524Y-109945714D01*
X118295905Y-109993333D01*
X118200667Y-110040952D01*
X118010190Y-110040952D01*
X117914952Y-110088571D01*
X117867333Y-110136190D01*
X117819714Y-110231429D01*
X117819714Y-110421905D01*
X117867333Y-110517143D01*
X117914952Y-110564762D01*
X118010190Y-110612381D01*
X118200667Y-110612381D01*
X118295905Y-110564762D01*
X118343524Y-110517143D01*
X118391143Y-110421905D01*
X118391143Y-110231429D01*
X118343524Y-110136190D01*
X118295905Y-110088571D01*
X118200667Y-110040952D01*
X119343524Y-110612381D02*
X118772095Y-110612381D01*
X119057809Y-110612381D02*
X119057809Y-109612381D01*
X118962571Y-109755238D01*
X118867333Y-109850476D01*
X118772095Y-109898095D01*
X119724476Y-109707619D02*
X119772095Y-109660000D01*
X119867333Y-109612381D01*
X120105429Y-109612381D01*
X120200667Y-109660000D01*
X120248286Y-109707619D01*
X120295905Y-109802857D01*
X120295905Y-109898095D01*
X120248286Y-110040952D01*
X119676857Y-110612381D01*
X120295905Y-110612381D01*
X121057810Y-110088571D02*
X121200667Y-110136190D01*
X121248286Y-110183810D01*
X121295905Y-110279048D01*
X121295905Y-110421905D01*
X121248286Y-110517143D01*
X121200667Y-110564762D01*
X121105429Y-110612381D01*
X120724476Y-110612381D01*
X120724476Y-109612381D01*
X121057810Y-109612381D01*
X121153048Y-109660000D01*
X121200667Y-109707619D01*
X121248286Y-109802857D01*
X121248286Y-109898095D01*
X121200667Y-109993333D01*
X121153048Y-110040952D01*
X121057810Y-110088571D01*
X120724476Y-110088571D01*
D12*
X120320000Y-116256000D02*
X118288000Y-116256000D01*
X120320000Y-114224000D02*
X120320000Y-116256000D01*
X118288000Y-116256000D02*
X120320000Y-114224000D01*
D13*
X112400000Y-114350000D02*
X112400000Y-113650000D01*
X113600000Y-113650000D02*
X113600000Y-114350000D01*
X123675000Y-113500000D02*
X123675000Y-114500000D01*
X122325000Y-114500000D02*
X122325000Y-113500000D01*
D14*
X117000000Y-112350000D02*
X117750000Y-112800000D01*
X117750000Y-112800000D02*
X117750000Y-111900000D01*
X117750000Y-111900000D02*
X117000000Y-112350000D01*
X117000000Y-116500000D02*
X119000000Y-116500000D01*
X120500000Y-114500000D02*
X120500000Y-113500000D01*
X117000000Y-111500000D02*
X119000000Y-111500000D01*
X115500000Y-114500000D02*
X115500000Y-113500000D01*
D12*
X121850000Y-117000000D02*
X114150000Y-117000000D01*
X121850000Y-111000000D02*
X121850000Y-117000000D01*
X114150000Y-117000000D02*
X114150000Y-111000000D01*
X114150000Y-111000000D02*
X121850000Y-111000000D01*
D13*
X133286000Y-104000000D02*
G75*
G03X133286000Y-104000000I-2286000J0D01*
G01*
X107286000Y-125000000D02*
G75*
G03X107286000Y-125000000I-2286000J0D01*
G01*
X105070000Y-103670000D02*
X105070000Y-106210000D01*
X105350000Y-100850000D02*
X105350000Y-102400000D01*
X105070000Y-103670000D02*
X102530000Y-103670000D01*
X102250000Y-102400000D02*
X102250000Y-100850000D01*
X102250000Y-100850000D02*
X105350000Y-100850000D01*
X102530000Y-103670000D02*
X102530000Y-106210000D01*
X102530000Y-106210000D02*
X105070000Y-106210000D01*
X111457143Y-114166666D02*
X111504762Y-114214285D01*
X111552381Y-114357142D01*
X111552381Y-114452380D01*
X111504762Y-114595238D01*
X111409524Y-114690476D01*
X111314286Y-114738095D01*
X111123810Y-114785714D01*
X110980952Y-114785714D01*
X110790476Y-114738095D01*
X110695238Y-114690476D01*
X110600000Y-114595238D01*
X110552381Y-114452380D01*
X110552381Y-114357142D01*
X110600000Y-114214285D01*
X110647619Y-114166666D01*
X110552381Y-113833333D02*
X110552381Y-113214285D01*
X110933333Y-113547619D01*
X110933333Y-113404761D01*
X110980952Y-113309523D01*
X111028571Y-113261904D01*
X111123810Y-113214285D01*
X111361905Y-113214285D01*
X111457143Y-113261904D01*
X111504762Y-113309523D01*
X111552381Y-113404761D01*
X111552381Y-113690476D01*
X111504762Y-113785714D01*
X111457143Y-113833333D01*
X125452381Y-114166666D02*
X124976190Y-114500000D01*
X125452381Y-114738095D02*
X124452381Y-114738095D01*
X124452381Y-114357142D01*
X124500000Y-114261904D01*
X124547619Y-114214285D01*
X124642857Y-114166666D01*
X124785714Y-114166666D01*
X124880952Y-114214285D01*
X124928571Y-114261904D01*
X124976190Y-114357142D01*
X124976190Y-114738095D01*
X125452381Y-113214285D02*
X125452381Y-113785714D01*
X125452381Y-113500000D02*
X124452381Y-113500000D01*
X124595238Y-113595238D01*
X124690476Y-113690476D01*
X124738095Y-113785714D01*
M02*
