G04 #@! TF.FileFunction,Legend,Top*
%FSLAX46Y46*%
G04 Gerber Fmt 4.6, Leading zero omitted, Abs format (unit mm)*
G04 Created by KiCad (PCBNEW (2015-09-17 BZR 6202)-product) date Saturday, October 24, 2015 'PMt' 10:17:15 PM*
%MOMM*%
G01*
G04 APERTURE LIST*
%ADD10C,0.100000*%
%ADD11C,0.150000*%
%ADD12C,0.203200*%
%ADD13C,0.200000*%
G04 APERTURE END LIST*
D10*
D11*
X112400000Y-114350000D02*
X112400000Y-113650000D01*
X113600000Y-113650000D02*
X113600000Y-114350000D01*
X123675000Y-113500000D02*
X123675000Y-114500000D01*
X122325000Y-114500000D02*
X122325000Y-113500000D01*
D12*
X117000000Y-112350000D02*
X117750000Y-112800000D01*
X117750000Y-112800000D02*
X117750000Y-111900000D01*
X117750000Y-111900000D02*
X117000000Y-112350000D01*
X117000000Y-116500000D02*
X119000000Y-116500000D01*
X120500000Y-114500000D02*
X120500000Y-113500000D01*
X117000000Y-111500000D02*
X119000000Y-111500000D01*
X115500000Y-114500000D02*
X115500000Y-113500000D01*
D13*
X121850000Y-117000000D02*
X114150000Y-117000000D01*
X121850000Y-111000000D02*
X121850000Y-117000000D01*
X114150000Y-117000000D02*
X114150000Y-111000000D01*
X114150000Y-111000000D02*
X121850000Y-111000000D01*
D11*
X133286000Y-104000000D02*
G75*
G03X133286000Y-104000000I-2286000J0D01*
G01*
X107286000Y-125000000D02*
G75*
G03X107286000Y-125000000I-2286000J0D01*
G01*
X107286000Y-125000000D02*
G75*
G03X107286000Y-125000000I-2286000J0D01*
G01*
X111457143Y-114166666D02*
X111504762Y-114214285D01*
X111552381Y-114357142D01*
X111552381Y-114452380D01*
X111504762Y-114595238D01*
X111409524Y-114690476D01*
X111314286Y-114738095D01*
X111123810Y-114785714D01*
X110980952Y-114785714D01*
X110790476Y-114738095D01*
X110695238Y-114690476D01*
X110600000Y-114595238D01*
X110552381Y-114452380D01*
X110552381Y-114357142D01*
X110600000Y-114214285D01*
X110647619Y-114166666D01*
X110552381Y-113833333D02*
X110552381Y-113214285D01*
X110933333Y-113547619D01*
X110933333Y-113404761D01*
X110980952Y-113309523D01*
X111028571Y-113261904D01*
X111123810Y-113214285D01*
X111361905Y-113214285D01*
X111457143Y-113261904D01*
X111504762Y-113309523D01*
X111552381Y-113404761D01*
X111552381Y-113690476D01*
X111504762Y-113785714D01*
X111457143Y-113833333D01*
X125452381Y-114166666D02*
X124976190Y-114500000D01*
X125452381Y-114738095D02*
X124452381Y-114738095D01*
X124452381Y-114357142D01*
X124500000Y-114261904D01*
X124547619Y-114214285D01*
X124642857Y-114166666D01*
X124785714Y-114166666D01*
X124880952Y-114214285D01*
X124928571Y-114261904D01*
X124976190Y-114357142D01*
X124976190Y-114738095D01*
X125452381Y-113214285D02*
X125452381Y-113785714D01*
X125452381Y-113500000D02*
X124452381Y-113500000D01*
X124595238Y-113595238D01*
X124690476Y-113690476D01*
X124738095Y-113785714D01*
D13*
X112702381Y-114761905D02*
X113511905Y-114761905D01*
X113607143Y-114714286D01*
X113654762Y-114666667D01*
X113702381Y-114571429D01*
X113702381Y-114380952D01*
X113654762Y-114285714D01*
X113607143Y-114238095D01*
X113511905Y-114190476D01*
X112702381Y-114190476D01*
X113702381Y-113190476D02*
X113702381Y-113761905D01*
X113702381Y-113476191D02*
X112702381Y-113476191D01*
X112845238Y-113571429D01*
X112940476Y-113666667D01*
X112988095Y-113761905D01*
M02*
