G04 #@! TF.FileFunction,Copper,L1,Top,Signal*
%FSLAX46Y46*%
G04 Gerber Fmt 4.6, Leading zero omitted, Abs format (unit mm)*
G04 Created by KiCad (PCBNEW (2015-10-28 BZR 6285)-product) date Saturday, November 07, 2015 'PMt' 07:34:48 PM*
%MOMM*%
G01*
G04 APERTURE LIST*
%ADD10C,0.100000*%
%ADD11R,0.750000X1.200000*%
%ADD12R,2.032000X1.727200*%
%ADD13O,2.032000X1.727200*%
%ADD14R,0.900000X1.200000*%
%ADD15R,1.800000X1.400000*%
%ADD16C,4.064000*%
%ADD17R,2.032000X2.032000*%
%ADD18O,2.032000X2.032000*%
%ADD19C,0.600000*%
%ADD20C,0.250000*%
%ADD21C,0.254000*%
G04 APERTURE END LIST*
D10*
D11*
X113000000Y-114950000D03*
X113000000Y-113050000D03*
D12*
X133000000Y-117500000D03*
D13*
X133000000Y-120040000D03*
X133000000Y-122580000D03*
X133000000Y-125120000D03*
X133000000Y-127660000D03*
D14*
X123000000Y-115100000D03*
X123000000Y-112900000D03*
D15*
X115600000Y-112350000D03*
X115600000Y-115650000D03*
X120400000Y-115650000D03*
X120400000Y-112350000D03*
D16*
X131000000Y-104000000D03*
X105000000Y-125000000D03*
D17*
X103800000Y-102400000D03*
D18*
X103800000Y-104940000D03*
D19*
X109200000Y-102650000D03*
X121000000Y-115200000D03*
X113000000Y-114950000D03*
X117250000Y-119800000D03*
X115406000Y-121295000D03*
X115600000Y-123800000D03*
X117000000Y-118000000D03*
X123000000Y-115500000D03*
X123750000Y-122500000D03*
D20*
X103800000Y-104940000D02*
X104940000Y-104940000D01*
X105200000Y-105200000D02*
X105200000Y-105250000D01*
X104940000Y-104940000D02*
X105200000Y-105200000D01*
X113000000Y-113050000D02*
X114900000Y-113050000D01*
X114900000Y-113050000D02*
X115600000Y-112350000D01*
X103900000Y-105140000D02*
X105090000Y-105140000D01*
X105090000Y-105140000D02*
X105200000Y-105250000D01*
X105200000Y-105250000D02*
X113000000Y-113050000D01*
X109200000Y-102650000D02*
X109200000Y-102600000D01*
X121000000Y-115200000D02*
X120550000Y-115650000D01*
X120550000Y-115650000D02*
X120400000Y-115650000D01*
X117250000Y-119800000D02*
X117200000Y-119800000D01*
X115400000Y-121200000D02*
X115400000Y-121289000D01*
X115400000Y-121289000D02*
X115406000Y-121295000D01*
X132900000Y-120040000D02*
X119210000Y-120040000D01*
X119210000Y-120040000D02*
X115600000Y-123800000D01*
X132900000Y-117500000D02*
X117500000Y-117500000D01*
X117500000Y-117500000D02*
X117000000Y-118000000D01*
X123000000Y-115500000D02*
X123000000Y-115100000D01*
X132900000Y-122580000D02*
X123830000Y-122580000D01*
X123830000Y-122580000D02*
X123750000Y-122500000D01*
X123000000Y-112900000D02*
X120950000Y-112900000D01*
X120950000Y-112900000D02*
X120400000Y-112350000D01*
D21*
G36*
X135290000Y-129290000D02*
X100710000Y-129290000D01*
X100710000Y-128019026D01*
X131392642Y-128019026D01*
X131395291Y-128034791D01*
X131649268Y-128562036D01*
X132085680Y-128951954D01*
X132638087Y-129145184D01*
X132873000Y-129000924D01*
X132873000Y-127787000D01*
X133127000Y-127787000D01*
X133127000Y-129000924D01*
X133361913Y-129145184D01*
X133914320Y-128951954D01*
X134350732Y-128562036D01*
X134604709Y-128034791D01*
X134607358Y-128019026D01*
X134486217Y-127787000D01*
X133127000Y-127787000D01*
X132873000Y-127787000D01*
X131513783Y-127787000D01*
X131392642Y-128019026D01*
X100710000Y-128019026D01*
X100710000Y-125528172D01*
X102332538Y-125528172D01*
X102737709Y-126508761D01*
X103487293Y-127259655D01*
X104467173Y-127666536D01*
X105528172Y-127667462D01*
X106508761Y-127262291D01*
X107259655Y-126512707D01*
X107666536Y-125532827D01*
X107667462Y-124471828D01*
X107466378Y-123985167D01*
X114664838Y-123985167D01*
X114806883Y-124328943D01*
X115069673Y-124592192D01*
X115413201Y-124734838D01*
X115785167Y-124735162D01*
X116128943Y-124593117D01*
X116392192Y-124330327D01*
X116534838Y-123986799D01*
X116534893Y-123923620D01*
X119533901Y-120800000D01*
X131555352Y-120800000D01*
X131755585Y-121099670D01*
X132070366Y-121310000D01*
X131755585Y-121520330D01*
X131555352Y-121820000D01*
X124392323Y-121820000D01*
X124280327Y-121707808D01*
X123936799Y-121565162D01*
X123564833Y-121564838D01*
X123221057Y-121706883D01*
X122957808Y-121969673D01*
X122815162Y-122313201D01*
X122814838Y-122685167D01*
X122956883Y-123028943D01*
X123219673Y-123292192D01*
X123563201Y-123434838D01*
X123935167Y-123435162D01*
X124165477Y-123340000D01*
X131555352Y-123340000D01*
X131755585Y-123639670D01*
X132070366Y-123850000D01*
X131755585Y-124060330D01*
X131430729Y-124546511D01*
X131316655Y-125120000D01*
X131430729Y-125693489D01*
X131755585Y-126179670D01*
X132065069Y-126386461D01*
X131649268Y-126757964D01*
X131395291Y-127285209D01*
X131392642Y-127300974D01*
X131513783Y-127533000D01*
X132873000Y-127533000D01*
X132873000Y-127513000D01*
X133127000Y-127513000D01*
X133127000Y-127533000D01*
X134486217Y-127533000D01*
X134607358Y-127300974D01*
X134604709Y-127285209D01*
X134350732Y-126757964D01*
X133934931Y-126386461D01*
X134244415Y-126179670D01*
X134569271Y-125693489D01*
X134683345Y-125120000D01*
X134569271Y-124546511D01*
X134244415Y-124060330D01*
X133929634Y-123850000D01*
X134244415Y-123639670D01*
X134569271Y-123153489D01*
X134683345Y-122580000D01*
X134569271Y-122006511D01*
X134244415Y-121520330D01*
X133929634Y-121310000D01*
X134244415Y-121099670D01*
X134569271Y-120613489D01*
X134683345Y-120040000D01*
X134569271Y-119466511D01*
X134244415Y-118980330D01*
X134230087Y-118970757D01*
X134251317Y-118966762D01*
X134467441Y-118827690D01*
X134612431Y-118615490D01*
X134663440Y-118363600D01*
X134663440Y-116636400D01*
X134619162Y-116401083D01*
X134480090Y-116184959D01*
X134267890Y-116039969D01*
X134016000Y-115988960D01*
X131984000Y-115988960D01*
X131748683Y-116033238D01*
X131532559Y-116172310D01*
X131387569Y-116384510D01*
X131336560Y-116636400D01*
X131336560Y-116740000D01*
X121808025Y-116740000D01*
X121838327Y-116709698D01*
X121935000Y-116476309D01*
X121935000Y-115935750D01*
X121776252Y-115777002D01*
X121917049Y-115777002D01*
X121946838Y-115935317D01*
X122085910Y-116151441D01*
X122298110Y-116296431D01*
X122550000Y-116347440D01*
X122602724Y-116347440D01*
X122813201Y-116434838D01*
X123185167Y-116435162D01*
X123397471Y-116347440D01*
X123450000Y-116347440D01*
X123685317Y-116303162D01*
X123901441Y-116164090D01*
X124046431Y-115951890D01*
X124097440Y-115700000D01*
X124097440Y-114500000D01*
X124053162Y-114264683D01*
X123914090Y-114048559D01*
X123844289Y-114000866D01*
X123901441Y-113964090D01*
X124046431Y-113751890D01*
X124097440Y-113500000D01*
X124097440Y-112300000D01*
X124053162Y-112064683D01*
X123914090Y-111848559D01*
X123701890Y-111703569D01*
X123450000Y-111652560D01*
X122550000Y-111652560D01*
X122314683Y-111696838D01*
X122098559Y-111835910D01*
X121953569Y-112048110D01*
X121947440Y-112078376D01*
X121947440Y-111650000D01*
X121903162Y-111414683D01*
X121764090Y-111198559D01*
X121551890Y-111053569D01*
X121300000Y-111002560D01*
X119500000Y-111002560D01*
X119264683Y-111046838D01*
X119048559Y-111185910D01*
X118903569Y-111398110D01*
X118852560Y-111650000D01*
X118852560Y-113050000D01*
X118896838Y-113285317D01*
X119035910Y-113501441D01*
X119248110Y-113646431D01*
X119500000Y-113697440D01*
X121300000Y-113697440D01*
X121498976Y-113660000D01*
X121932666Y-113660000D01*
X121946838Y-113735317D01*
X122085910Y-113951441D01*
X122155711Y-113999134D01*
X122098559Y-114035910D01*
X121953569Y-114248110D01*
X121902560Y-114500000D01*
X121902560Y-114745374D01*
X121838327Y-114590302D01*
X121659699Y-114411673D01*
X121426310Y-114315000D01*
X120685750Y-114315000D01*
X120527000Y-114473750D01*
X120527000Y-115523000D01*
X120547000Y-115523000D01*
X120547000Y-115777000D01*
X120527000Y-115777000D01*
X120527000Y-115797000D01*
X120273000Y-115797000D01*
X120273000Y-115777000D01*
X119023750Y-115777000D01*
X118865000Y-115935750D01*
X118865000Y-116476309D01*
X118961673Y-116709698D01*
X118991975Y-116740000D01*
X117500000Y-116740000D01*
X117209161Y-116797852D01*
X116962599Y-116962599D01*
X116860320Y-117064878D01*
X116814833Y-117064838D01*
X116471057Y-117206883D01*
X116207808Y-117469673D01*
X116065162Y-117813201D01*
X116064838Y-118185167D01*
X116206883Y-118528943D01*
X116469673Y-118792192D01*
X116813201Y-118934838D01*
X117185167Y-118935162D01*
X117528943Y-118793117D01*
X117792192Y-118530327D01*
X117904442Y-118260000D01*
X131336560Y-118260000D01*
X131336560Y-118363600D01*
X131380838Y-118598917D01*
X131519910Y-118815041D01*
X131732110Y-118960031D01*
X131773439Y-118968400D01*
X131755585Y-118980330D01*
X131555352Y-119280000D01*
X119210000Y-119280000D01*
X119202281Y-119281535D01*
X119194535Y-119280158D01*
X119057163Y-119310401D01*
X118919161Y-119337852D01*
X118912618Y-119342224D01*
X118904933Y-119343916D01*
X118789583Y-119424433D01*
X118672599Y-119502599D01*
X118668227Y-119509143D01*
X118661775Y-119513646D01*
X115444249Y-122864864D01*
X115414833Y-122864838D01*
X115071057Y-123006883D01*
X114807808Y-123269673D01*
X114665162Y-123613201D01*
X114664838Y-123985167D01*
X107466378Y-123985167D01*
X107262291Y-123491239D01*
X106512707Y-122740345D01*
X105532827Y-122333464D01*
X104471828Y-122332538D01*
X103491239Y-122737709D01*
X102740345Y-123487293D01*
X102333464Y-124467173D01*
X102332538Y-125528172D01*
X100710000Y-125528172D01*
X100710000Y-115235750D01*
X111990000Y-115235750D01*
X111990000Y-115676309D01*
X112086673Y-115909698D01*
X112265301Y-116088327D01*
X112498690Y-116185000D01*
X112714250Y-116185000D01*
X112873000Y-116026250D01*
X112873000Y-115077000D01*
X113127000Y-115077000D01*
X113127000Y-116026250D01*
X113285750Y-116185000D01*
X113501310Y-116185000D01*
X113734699Y-116088327D01*
X113913327Y-115909698D01*
X114010000Y-115676309D01*
X114010000Y-115235750D01*
X113851250Y-115077000D01*
X113127000Y-115077000D01*
X112873000Y-115077000D01*
X112148750Y-115077000D01*
X111990000Y-115235750D01*
X100710000Y-115235750D01*
X100710000Y-114950000D01*
X114052560Y-114950000D01*
X114052560Y-116350000D01*
X114096838Y-116585317D01*
X114235910Y-116801441D01*
X114448110Y-116946431D01*
X114700000Y-116997440D01*
X116500000Y-116997440D01*
X116735317Y-116953162D01*
X116951441Y-116814090D01*
X117096431Y-116601890D01*
X117147440Y-116350000D01*
X117147440Y-114950000D01*
X117123674Y-114823691D01*
X118865000Y-114823691D01*
X118865000Y-115364250D01*
X119023750Y-115523000D01*
X120273000Y-115523000D01*
X120273000Y-114473750D01*
X120114250Y-114315000D01*
X119373690Y-114315000D01*
X119140301Y-114411673D01*
X118961673Y-114590302D01*
X118865000Y-114823691D01*
X117123674Y-114823691D01*
X117103162Y-114714683D01*
X116964090Y-114498559D01*
X116751890Y-114353569D01*
X116500000Y-114302560D01*
X114700000Y-114302560D01*
X114464683Y-114346838D01*
X114248559Y-114485910D01*
X114103569Y-114698110D01*
X114052560Y-114950000D01*
X100710000Y-114950000D01*
X100710000Y-104940000D01*
X102116655Y-104940000D01*
X102242330Y-105571810D01*
X102600222Y-106107433D01*
X103135845Y-106465325D01*
X103767655Y-106591000D01*
X103832345Y-106591000D01*
X104464155Y-106465325D01*
X104989499Y-106114301D01*
X111977560Y-113102362D01*
X111977560Y-113650000D01*
X112021838Y-113885317D01*
X112088329Y-113988646D01*
X112086673Y-113990302D01*
X111990000Y-114223691D01*
X111990000Y-114664250D01*
X112148750Y-114823000D01*
X112873000Y-114823000D01*
X112873000Y-114803000D01*
X113127000Y-114803000D01*
X113127000Y-114823000D01*
X113851250Y-114823000D01*
X114010000Y-114664250D01*
X114010000Y-114223691D01*
X113913327Y-113990302D01*
X113911957Y-113988932D01*
X113971431Y-113901890D01*
X113990039Y-113810000D01*
X114900000Y-113810000D01*
X115190839Y-113752148D01*
X115272716Y-113697440D01*
X116500000Y-113697440D01*
X116735317Y-113653162D01*
X116951441Y-113514090D01*
X117096431Y-113301890D01*
X117147440Y-113050000D01*
X117147440Y-111650000D01*
X117103162Y-111414683D01*
X116964090Y-111198559D01*
X116751890Y-111053569D01*
X116500000Y-111002560D01*
X114700000Y-111002560D01*
X114464683Y-111046838D01*
X114248559Y-111185910D01*
X114103569Y-111398110D01*
X114052560Y-111650000D01*
X114052560Y-112290000D01*
X113992334Y-112290000D01*
X113978162Y-112214683D01*
X113839090Y-111998559D01*
X113626890Y-111853569D01*
X113375000Y-111802560D01*
X112827362Y-111802560D01*
X105838084Y-104813282D01*
X105737401Y-104662599D01*
X105602974Y-104528172D01*
X128332538Y-104528172D01*
X128737709Y-105508761D01*
X129487293Y-106259655D01*
X130467173Y-106666536D01*
X131528172Y-106667462D01*
X132508761Y-106262291D01*
X133259655Y-105512707D01*
X133666536Y-104532827D01*
X133667462Y-103471828D01*
X133262291Y-102491239D01*
X132512707Y-101740345D01*
X131532827Y-101333464D01*
X130471828Y-101332538D01*
X129491239Y-101737709D01*
X128740345Y-102487293D01*
X128333464Y-103467173D01*
X128332538Y-104528172D01*
X105602974Y-104528172D01*
X105477401Y-104402599D01*
X105360975Y-104324806D01*
X105357670Y-104308190D01*
X105133034Y-103971999D01*
X105175698Y-103954327D01*
X105354327Y-103775699D01*
X105451000Y-103542310D01*
X105451000Y-102685750D01*
X105292250Y-102527000D01*
X103927000Y-102527000D01*
X103927000Y-102547000D01*
X103673000Y-102547000D01*
X103673000Y-102527000D01*
X102307750Y-102527000D01*
X102149000Y-102685750D01*
X102149000Y-103542310D01*
X102245673Y-103775699D01*
X102424302Y-103954327D01*
X102466966Y-103971999D01*
X102242330Y-104308190D01*
X102116655Y-104940000D01*
X100710000Y-104940000D01*
X100710000Y-101257690D01*
X102149000Y-101257690D01*
X102149000Y-102114250D01*
X102307750Y-102273000D01*
X103673000Y-102273000D01*
X103673000Y-100907750D01*
X103927000Y-100907750D01*
X103927000Y-102273000D01*
X105292250Y-102273000D01*
X105451000Y-102114250D01*
X105451000Y-101257690D01*
X105354327Y-101024301D01*
X105175698Y-100845673D01*
X104942309Y-100749000D01*
X104085750Y-100749000D01*
X103927000Y-100907750D01*
X103673000Y-100907750D01*
X103514250Y-100749000D01*
X102657691Y-100749000D01*
X102424302Y-100845673D01*
X102245673Y-101024301D01*
X102149000Y-101257690D01*
X100710000Y-101257690D01*
X100710000Y-100710000D01*
X135290000Y-100710000D01*
X135290000Y-129290000D01*
X135290000Y-129290000D01*
G37*
X135290000Y-129290000D02*
X100710000Y-129290000D01*
X100710000Y-128019026D01*
X131392642Y-128019026D01*
X131395291Y-128034791D01*
X131649268Y-128562036D01*
X132085680Y-128951954D01*
X132638087Y-129145184D01*
X132873000Y-129000924D01*
X132873000Y-127787000D01*
X133127000Y-127787000D01*
X133127000Y-129000924D01*
X133361913Y-129145184D01*
X133914320Y-128951954D01*
X134350732Y-128562036D01*
X134604709Y-128034791D01*
X134607358Y-128019026D01*
X134486217Y-127787000D01*
X133127000Y-127787000D01*
X132873000Y-127787000D01*
X131513783Y-127787000D01*
X131392642Y-128019026D01*
X100710000Y-128019026D01*
X100710000Y-125528172D01*
X102332538Y-125528172D01*
X102737709Y-126508761D01*
X103487293Y-127259655D01*
X104467173Y-127666536D01*
X105528172Y-127667462D01*
X106508761Y-127262291D01*
X107259655Y-126512707D01*
X107666536Y-125532827D01*
X107667462Y-124471828D01*
X107466378Y-123985167D01*
X114664838Y-123985167D01*
X114806883Y-124328943D01*
X115069673Y-124592192D01*
X115413201Y-124734838D01*
X115785167Y-124735162D01*
X116128943Y-124593117D01*
X116392192Y-124330327D01*
X116534838Y-123986799D01*
X116534893Y-123923620D01*
X119533901Y-120800000D01*
X131555352Y-120800000D01*
X131755585Y-121099670D01*
X132070366Y-121310000D01*
X131755585Y-121520330D01*
X131555352Y-121820000D01*
X124392323Y-121820000D01*
X124280327Y-121707808D01*
X123936799Y-121565162D01*
X123564833Y-121564838D01*
X123221057Y-121706883D01*
X122957808Y-121969673D01*
X122815162Y-122313201D01*
X122814838Y-122685167D01*
X122956883Y-123028943D01*
X123219673Y-123292192D01*
X123563201Y-123434838D01*
X123935167Y-123435162D01*
X124165477Y-123340000D01*
X131555352Y-123340000D01*
X131755585Y-123639670D01*
X132070366Y-123850000D01*
X131755585Y-124060330D01*
X131430729Y-124546511D01*
X131316655Y-125120000D01*
X131430729Y-125693489D01*
X131755585Y-126179670D01*
X132065069Y-126386461D01*
X131649268Y-126757964D01*
X131395291Y-127285209D01*
X131392642Y-127300974D01*
X131513783Y-127533000D01*
X132873000Y-127533000D01*
X132873000Y-127513000D01*
X133127000Y-127513000D01*
X133127000Y-127533000D01*
X134486217Y-127533000D01*
X134607358Y-127300974D01*
X134604709Y-127285209D01*
X134350732Y-126757964D01*
X133934931Y-126386461D01*
X134244415Y-126179670D01*
X134569271Y-125693489D01*
X134683345Y-125120000D01*
X134569271Y-124546511D01*
X134244415Y-124060330D01*
X133929634Y-123850000D01*
X134244415Y-123639670D01*
X134569271Y-123153489D01*
X134683345Y-122580000D01*
X134569271Y-122006511D01*
X134244415Y-121520330D01*
X133929634Y-121310000D01*
X134244415Y-121099670D01*
X134569271Y-120613489D01*
X134683345Y-120040000D01*
X134569271Y-119466511D01*
X134244415Y-118980330D01*
X134230087Y-118970757D01*
X134251317Y-118966762D01*
X134467441Y-118827690D01*
X134612431Y-118615490D01*
X134663440Y-118363600D01*
X134663440Y-116636400D01*
X134619162Y-116401083D01*
X134480090Y-116184959D01*
X134267890Y-116039969D01*
X134016000Y-115988960D01*
X131984000Y-115988960D01*
X131748683Y-116033238D01*
X131532559Y-116172310D01*
X131387569Y-116384510D01*
X131336560Y-116636400D01*
X131336560Y-116740000D01*
X121808025Y-116740000D01*
X121838327Y-116709698D01*
X121935000Y-116476309D01*
X121935000Y-115935750D01*
X121776252Y-115777002D01*
X121917049Y-115777002D01*
X121946838Y-115935317D01*
X122085910Y-116151441D01*
X122298110Y-116296431D01*
X122550000Y-116347440D01*
X122602724Y-116347440D01*
X122813201Y-116434838D01*
X123185167Y-116435162D01*
X123397471Y-116347440D01*
X123450000Y-116347440D01*
X123685317Y-116303162D01*
X123901441Y-116164090D01*
X124046431Y-115951890D01*
X124097440Y-115700000D01*
X124097440Y-114500000D01*
X124053162Y-114264683D01*
X123914090Y-114048559D01*
X123844289Y-114000866D01*
X123901441Y-113964090D01*
X124046431Y-113751890D01*
X124097440Y-113500000D01*
X124097440Y-112300000D01*
X124053162Y-112064683D01*
X123914090Y-111848559D01*
X123701890Y-111703569D01*
X123450000Y-111652560D01*
X122550000Y-111652560D01*
X122314683Y-111696838D01*
X122098559Y-111835910D01*
X121953569Y-112048110D01*
X121947440Y-112078376D01*
X121947440Y-111650000D01*
X121903162Y-111414683D01*
X121764090Y-111198559D01*
X121551890Y-111053569D01*
X121300000Y-111002560D01*
X119500000Y-111002560D01*
X119264683Y-111046838D01*
X119048559Y-111185910D01*
X118903569Y-111398110D01*
X118852560Y-111650000D01*
X118852560Y-113050000D01*
X118896838Y-113285317D01*
X119035910Y-113501441D01*
X119248110Y-113646431D01*
X119500000Y-113697440D01*
X121300000Y-113697440D01*
X121498976Y-113660000D01*
X121932666Y-113660000D01*
X121946838Y-113735317D01*
X122085910Y-113951441D01*
X122155711Y-113999134D01*
X122098559Y-114035910D01*
X121953569Y-114248110D01*
X121902560Y-114500000D01*
X121902560Y-114745374D01*
X121838327Y-114590302D01*
X121659699Y-114411673D01*
X121426310Y-114315000D01*
X120685750Y-114315000D01*
X120527000Y-114473750D01*
X120527000Y-115523000D01*
X120547000Y-115523000D01*
X120547000Y-115777000D01*
X120527000Y-115777000D01*
X120527000Y-115797000D01*
X120273000Y-115797000D01*
X120273000Y-115777000D01*
X119023750Y-115777000D01*
X118865000Y-115935750D01*
X118865000Y-116476309D01*
X118961673Y-116709698D01*
X118991975Y-116740000D01*
X117500000Y-116740000D01*
X117209161Y-116797852D01*
X116962599Y-116962599D01*
X116860320Y-117064878D01*
X116814833Y-117064838D01*
X116471057Y-117206883D01*
X116207808Y-117469673D01*
X116065162Y-117813201D01*
X116064838Y-118185167D01*
X116206883Y-118528943D01*
X116469673Y-118792192D01*
X116813201Y-118934838D01*
X117185167Y-118935162D01*
X117528943Y-118793117D01*
X117792192Y-118530327D01*
X117904442Y-118260000D01*
X131336560Y-118260000D01*
X131336560Y-118363600D01*
X131380838Y-118598917D01*
X131519910Y-118815041D01*
X131732110Y-118960031D01*
X131773439Y-118968400D01*
X131755585Y-118980330D01*
X131555352Y-119280000D01*
X119210000Y-119280000D01*
X119202281Y-119281535D01*
X119194535Y-119280158D01*
X119057163Y-119310401D01*
X118919161Y-119337852D01*
X118912618Y-119342224D01*
X118904933Y-119343916D01*
X118789583Y-119424433D01*
X118672599Y-119502599D01*
X118668227Y-119509143D01*
X118661775Y-119513646D01*
X115444249Y-122864864D01*
X115414833Y-122864838D01*
X115071057Y-123006883D01*
X114807808Y-123269673D01*
X114665162Y-123613201D01*
X114664838Y-123985167D01*
X107466378Y-123985167D01*
X107262291Y-123491239D01*
X106512707Y-122740345D01*
X105532827Y-122333464D01*
X104471828Y-122332538D01*
X103491239Y-122737709D01*
X102740345Y-123487293D01*
X102333464Y-124467173D01*
X102332538Y-125528172D01*
X100710000Y-125528172D01*
X100710000Y-115235750D01*
X111990000Y-115235750D01*
X111990000Y-115676309D01*
X112086673Y-115909698D01*
X112265301Y-116088327D01*
X112498690Y-116185000D01*
X112714250Y-116185000D01*
X112873000Y-116026250D01*
X112873000Y-115077000D01*
X113127000Y-115077000D01*
X113127000Y-116026250D01*
X113285750Y-116185000D01*
X113501310Y-116185000D01*
X113734699Y-116088327D01*
X113913327Y-115909698D01*
X114010000Y-115676309D01*
X114010000Y-115235750D01*
X113851250Y-115077000D01*
X113127000Y-115077000D01*
X112873000Y-115077000D01*
X112148750Y-115077000D01*
X111990000Y-115235750D01*
X100710000Y-115235750D01*
X100710000Y-114950000D01*
X114052560Y-114950000D01*
X114052560Y-116350000D01*
X114096838Y-116585317D01*
X114235910Y-116801441D01*
X114448110Y-116946431D01*
X114700000Y-116997440D01*
X116500000Y-116997440D01*
X116735317Y-116953162D01*
X116951441Y-116814090D01*
X117096431Y-116601890D01*
X117147440Y-116350000D01*
X117147440Y-114950000D01*
X117123674Y-114823691D01*
X118865000Y-114823691D01*
X118865000Y-115364250D01*
X119023750Y-115523000D01*
X120273000Y-115523000D01*
X120273000Y-114473750D01*
X120114250Y-114315000D01*
X119373690Y-114315000D01*
X119140301Y-114411673D01*
X118961673Y-114590302D01*
X118865000Y-114823691D01*
X117123674Y-114823691D01*
X117103162Y-114714683D01*
X116964090Y-114498559D01*
X116751890Y-114353569D01*
X116500000Y-114302560D01*
X114700000Y-114302560D01*
X114464683Y-114346838D01*
X114248559Y-114485910D01*
X114103569Y-114698110D01*
X114052560Y-114950000D01*
X100710000Y-114950000D01*
X100710000Y-104940000D01*
X102116655Y-104940000D01*
X102242330Y-105571810D01*
X102600222Y-106107433D01*
X103135845Y-106465325D01*
X103767655Y-106591000D01*
X103832345Y-106591000D01*
X104464155Y-106465325D01*
X104989499Y-106114301D01*
X111977560Y-113102362D01*
X111977560Y-113650000D01*
X112021838Y-113885317D01*
X112088329Y-113988646D01*
X112086673Y-113990302D01*
X111990000Y-114223691D01*
X111990000Y-114664250D01*
X112148750Y-114823000D01*
X112873000Y-114823000D01*
X112873000Y-114803000D01*
X113127000Y-114803000D01*
X113127000Y-114823000D01*
X113851250Y-114823000D01*
X114010000Y-114664250D01*
X114010000Y-114223691D01*
X113913327Y-113990302D01*
X113911957Y-113988932D01*
X113971431Y-113901890D01*
X113990039Y-113810000D01*
X114900000Y-113810000D01*
X115190839Y-113752148D01*
X115272716Y-113697440D01*
X116500000Y-113697440D01*
X116735317Y-113653162D01*
X116951441Y-113514090D01*
X117096431Y-113301890D01*
X117147440Y-113050000D01*
X117147440Y-111650000D01*
X117103162Y-111414683D01*
X116964090Y-111198559D01*
X116751890Y-111053569D01*
X116500000Y-111002560D01*
X114700000Y-111002560D01*
X114464683Y-111046838D01*
X114248559Y-111185910D01*
X114103569Y-111398110D01*
X114052560Y-111650000D01*
X114052560Y-112290000D01*
X113992334Y-112290000D01*
X113978162Y-112214683D01*
X113839090Y-111998559D01*
X113626890Y-111853569D01*
X113375000Y-111802560D01*
X112827362Y-111802560D01*
X105838084Y-104813282D01*
X105737401Y-104662599D01*
X105602974Y-104528172D01*
X128332538Y-104528172D01*
X128737709Y-105508761D01*
X129487293Y-106259655D01*
X130467173Y-106666536D01*
X131528172Y-106667462D01*
X132508761Y-106262291D01*
X133259655Y-105512707D01*
X133666536Y-104532827D01*
X133667462Y-103471828D01*
X133262291Y-102491239D01*
X132512707Y-101740345D01*
X131532827Y-101333464D01*
X130471828Y-101332538D01*
X129491239Y-101737709D01*
X128740345Y-102487293D01*
X128333464Y-103467173D01*
X128332538Y-104528172D01*
X105602974Y-104528172D01*
X105477401Y-104402599D01*
X105360975Y-104324806D01*
X105357670Y-104308190D01*
X105133034Y-103971999D01*
X105175698Y-103954327D01*
X105354327Y-103775699D01*
X105451000Y-103542310D01*
X105451000Y-102685750D01*
X105292250Y-102527000D01*
X103927000Y-102527000D01*
X103927000Y-102547000D01*
X103673000Y-102547000D01*
X103673000Y-102527000D01*
X102307750Y-102527000D01*
X102149000Y-102685750D01*
X102149000Y-103542310D01*
X102245673Y-103775699D01*
X102424302Y-103954327D01*
X102466966Y-103971999D01*
X102242330Y-104308190D01*
X102116655Y-104940000D01*
X100710000Y-104940000D01*
X100710000Y-101257690D01*
X102149000Y-101257690D01*
X102149000Y-102114250D01*
X102307750Y-102273000D01*
X103673000Y-102273000D01*
X103673000Y-100907750D01*
X103927000Y-100907750D01*
X103927000Y-102273000D01*
X105292250Y-102273000D01*
X105451000Y-102114250D01*
X105451000Y-101257690D01*
X105354327Y-101024301D01*
X105175698Y-100845673D01*
X104942309Y-100749000D01*
X104085750Y-100749000D01*
X103927000Y-100907750D01*
X103673000Y-100907750D01*
X103514250Y-100749000D01*
X102657691Y-100749000D01*
X102424302Y-100845673D01*
X102245673Y-101024301D01*
X102149000Y-101257690D01*
X100710000Y-101257690D01*
X100710000Y-100710000D01*
X135290000Y-100710000D01*
X135290000Y-129290000D01*
M02*
