G04 #@! TF.FileFunction,Legend,Bot*
%FSLAX46Y46*%
G04 Gerber Fmt 4.6, Leading zero omitted, Abs format (unit mm)*
G04 Created by KiCad (PCBNEW (2015-09-17 BZR 6202)-product) date Saturday, October 24, 2015 'PMt' 10:04:51 PM*
%MOMM*%
G01*
G04 APERTURE LIST*
%ADD10C,0.100000*%
%ADD11C,0.150000*%
%ADD12C,0.127000*%
%ADD13C,0.149860*%
G04 APERTURE END LIST*
D10*
D11*
X110050000Y-103400000D02*
X110050000Y-104400000D01*
X108350000Y-104400000D02*
X108350000Y-103400000D01*
X118550000Y-119200000D02*
X117850000Y-119200000D01*
X117850000Y-120400000D02*
X118550000Y-120400000D01*
D12*
X120181200Y-125613000D02*
X116218800Y-125613000D01*
X116218800Y-125613000D02*
X116218800Y-120787000D01*
X116218800Y-120787000D02*
X120181200Y-120787000D01*
X120181200Y-120787000D02*
X120181200Y-125613000D01*
X120181200Y-125105000D02*
X121273400Y-125105000D01*
X120181200Y-123835000D02*
X121273400Y-123835000D01*
X120181200Y-122565000D02*
X121273400Y-122565000D01*
X121273400Y-121295000D02*
X120181200Y-121295000D01*
X116218800Y-121295000D02*
X115126600Y-121295000D01*
X115126600Y-122565000D02*
X116218800Y-122565000D01*
X115126600Y-123835000D02*
X116218800Y-123835000D01*
X115126600Y-125105000D02*
X116218800Y-125105000D01*
X117427867Y-124876400D02*
G75*
G03X117427867Y-124876400I-472467J0D01*
G01*
D11*
X117700000Y-118675000D02*
X118700000Y-118675000D01*
X118700000Y-117325000D02*
X117700000Y-117325000D01*
X111657143Y-103733334D02*
X111704762Y-103685715D01*
X111752381Y-103542858D01*
X111752381Y-103447620D01*
X111704762Y-103304762D01*
X111609524Y-103209524D01*
X111514286Y-103161905D01*
X111323810Y-103114286D01*
X111180952Y-103114286D01*
X110990476Y-103161905D01*
X110895238Y-103209524D01*
X110800000Y-103304762D01*
X110752381Y-103447620D01*
X110752381Y-103542858D01*
X110800000Y-103685715D01*
X110847619Y-103733334D01*
X111752381Y-104685715D02*
X111752381Y-104114286D01*
X111752381Y-104400000D02*
X110752381Y-104400000D01*
X110895238Y-104304762D01*
X110990476Y-104209524D01*
X111038095Y-104114286D01*
X121366666Y-120157143D02*
X121414285Y-120204762D01*
X121557142Y-120252381D01*
X121652380Y-120252381D01*
X121795238Y-120204762D01*
X121890476Y-120109524D01*
X121938095Y-120014286D01*
X121985714Y-119823810D01*
X121985714Y-119680952D01*
X121938095Y-119490476D01*
X121890476Y-119395238D01*
X121795238Y-119300000D01*
X121652380Y-119252381D01*
X121557142Y-119252381D01*
X121414285Y-119300000D01*
X121366666Y-119347619D01*
X120985714Y-119347619D02*
X120938095Y-119300000D01*
X120842857Y-119252381D01*
X120604761Y-119252381D01*
X120509523Y-119300000D01*
X120461904Y-119347619D01*
X120414285Y-119442857D01*
X120414285Y-119538095D01*
X120461904Y-119680952D01*
X121033333Y-120252381D01*
X120414285Y-120252381D01*
D13*
X119554969Y-122468541D02*
X118805669Y-122468541D01*
X119483607Y-123253522D02*
X119519288Y-123217841D01*
X119554969Y-123110798D01*
X119554969Y-123039436D01*
X119519288Y-122932394D01*
X119447926Y-122861032D01*
X119376564Y-122825351D01*
X119233840Y-122789670D01*
X119126798Y-122789670D01*
X118984074Y-122825351D01*
X118912712Y-122861032D01*
X118841350Y-122932394D01*
X118805669Y-123039436D01*
X118805669Y-123110798D01*
X118841350Y-123217841D01*
X118877031Y-123253522D01*
X119554969Y-123967141D02*
X119554969Y-123538970D01*
X119554969Y-123753056D02*
X118805669Y-123753056D01*
X118912712Y-123681694D01*
X118984074Y-123610332D01*
X119019755Y-123538970D01*
X117308883Y-120024396D02*
X117308883Y-120381205D01*
X117522969Y-119953034D02*
X116773669Y-120202801D01*
X117522969Y-120452567D01*
X116773669Y-120595291D02*
X116773669Y-121023462D01*
X117522969Y-120809377D02*
X116773669Y-120809377D01*
X116773669Y-121166186D02*
X116773669Y-121594357D01*
X117522969Y-121380272D02*
X116773669Y-121380272D01*
X117522969Y-121844124D02*
X116773669Y-121844124D01*
X117522969Y-122200934D02*
X116773669Y-122200934D01*
X117522969Y-122629105D01*
X116773669Y-122629105D01*
X117166160Y-123128639D02*
X117522969Y-123128639D01*
X116773669Y-122878872D02*
X117166160Y-123128639D01*
X116773669Y-123378405D01*
X117094798Y-123735215D02*
X117059117Y-123663853D01*
X117023436Y-123628172D01*
X116952074Y-123592491D01*
X116916393Y-123592491D01*
X116845031Y-123628172D01*
X116809350Y-123663853D01*
X116773669Y-123735215D01*
X116773669Y-123877938D01*
X116809350Y-123949300D01*
X116845031Y-123984981D01*
X116916393Y-124020662D01*
X116952074Y-124020662D01*
X117023436Y-123984981D01*
X117059117Y-123949300D01*
X117094798Y-123877938D01*
X117094798Y-123735215D01*
X117130479Y-123663853D01*
X117166160Y-123628172D01*
X117237521Y-123592491D01*
X117380245Y-123592491D01*
X117451607Y-123628172D01*
X117487288Y-123663853D01*
X117522969Y-123735215D01*
X117522969Y-123877938D01*
X117487288Y-123949300D01*
X117451607Y-123984981D01*
X117380245Y-124020662D01*
X117237521Y-124020662D01*
X117166160Y-123984981D01*
X117130479Y-123949300D01*
X117094798Y-123877938D01*
X116773669Y-124698600D02*
X116773669Y-124341791D01*
X117130479Y-124306110D01*
X117094798Y-124341791D01*
X117059117Y-124413153D01*
X117059117Y-124591557D01*
X117094798Y-124662919D01*
X117130479Y-124698600D01*
X117201840Y-124734281D01*
X117380245Y-124734281D01*
X117451607Y-124698600D01*
X117487288Y-124662919D01*
X117522969Y-124591557D01*
X117522969Y-124413153D01*
X117487288Y-124341791D01*
X117451607Y-124306110D01*
X117237521Y-125055410D02*
X117237521Y-125626305D01*
X117487288Y-125947434D02*
X117522969Y-126054477D01*
X117522969Y-126232881D01*
X117487288Y-126304243D01*
X117451607Y-126339924D01*
X117380245Y-126375605D01*
X117308883Y-126375605D01*
X117237521Y-126339924D01*
X117201840Y-126304243D01*
X117166160Y-126232881D01*
X117130479Y-126090158D01*
X117094798Y-126018796D01*
X117059117Y-125983115D01*
X116987755Y-125947434D01*
X116916393Y-125947434D01*
X116845031Y-125983115D01*
X116809350Y-126018796D01*
X116773669Y-126090158D01*
X116773669Y-126268562D01*
X116809350Y-126375605D01*
D11*
X121366666Y-118452381D02*
X121700000Y-117976190D01*
X121938095Y-118452381D02*
X121938095Y-117452381D01*
X121557142Y-117452381D01*
X121461904Y-117500000D01*
X121414285Y-117547619D01*
X121366666Y-117642857D01*
X121366666Y-117785714D01*
X121414285Y-117880952D01*
X121461904Y-117928571D01*
X121557142Y-117976190D01*
X121938095Y-117976190D01*
X120985714Y-117547619D02*
X120938095Y-117500000D01*
X120842857Y-117452381D01*
X120604761Y-117452381D01*
X120509523Y-117500000D01*
X120461904Y-117547619D01*
X120414285Y-117642857D01*
X120414285Y-117738095D01*
X120461904Y-117880952D01*
X121033333Y-118452381D01*
X120414285Y-118452381D01*
M02*
