G04 #@! TF.FileFunction,Legend,Bot*
%FSLAX46Y46*%
G04 Gerber Fmt 4.6, Leading zero omitted, Abs format (unit mm)*
G04 Created by KiCad (PCBNEW (2015-10-28 BZR 6285)-product) date Saturday, November 07, 2015 'PMt' 07:34:48 PM*
%MOMM*%
G01*
G04 APERTURE LIST*
%ADD10C,0.100000*%
%ADD11C,0.300000*%
%ADD12C,0.250000*%
%ADD13C,0.150000*%
%ADD14C,0.127000*%
%ADD15C,0.149860*%
G04 APERTURE END LIST*
D10*
D11*
X105600000Y-108478571D02*
X105600000Y-106978571D01*
X105028572Y-106978571D01*
X104885714Y-107050000D01*
X104814286Y-107121429D01*
X104742857Y-107264286D01*
X104742857Y-107478571D01*
X104814286Y-107621429D01*
X104885714Y-107692857D01*
X105028572Y-107764286D01*
X105600000Y-107764286D01*
X104242857Y-106978571D02*
X103885714Y-108478571D01*
X103600000Y-107407143D01*
X103314286Y-108478571D01*
X102957143Y-106978571D01*
X101528571Y-108478571D02*
X102028571Y-107764286D01*
X102385714Y-108478571D02*
X102385714Y-106978571D01*
X101814286Y-106978571D01*
X101671428Y-107050000D01*
X101600000Y-107121429D01*
X101528571Y-107264286D01*
X101528571Y-107478571D01*
X101600000Y-107621429D01*
X101671428Y-107692857D01*
X101814286Y-107764286D01*
X102385714Y-107764286D01*
D12*
X131011905Y-116952381D02*
X130773810Y-117952381D01*
X130583333Y-117238095D01*
X130392857Y-117952381D01*
X130154762Y-116952381D01*
X129821429Y-117666667D02*
X129345238Y-117666667D01*
X129916667Y-117952381D02*
X129583334Y-116952381D01*
X129250000Y-117952381D01*
X128916667Y-117952381D02*
X128916667Y-116952381D01*
X128345238Y-117952381D02*
X128773810Y-117380952D01*
X128345238Y-116952381D02*
X128916667Y-117523810D01*
X127916667Y-117428571D02*
X127583333Y-117428571D01*
X127440476Y-117952381D02*
X127916667Y-117952381D01*
X127916667Y-116952381D01*
X127440476Y-116952381D01*
X130285714Y-120377381D02*
X130619048Y-119901190D01*
X130857143Y-120377381D02*
X130857143Y-119377381D01*
X130476190Y-119377381D01*
X130380952Y-119425000D01*
X130333333Y-119472619D01*
X130285714Y-119567857D01*
X130285714Y-119710714D01*
X130333333Y-119805952D01*
X130380952Y-119853571D01*
X130476190Y-119901190D01*
X130857143Y-119901190D01*
X129904762Y-120091667D02*
X129428571Y-120091667D01*
X130000000Y-120377381D02*
X129666667Y-119377381D01*
X129333333Y-120377381D01*
X129000000Y-120377381D02*
X129000000Y-119377381D01*
X128428571Y-120377381D01*
X128428571Y-119377381D01*
X127952381Y-120377381D02*
X127952381Y-119377381D01*
X127714286Y-119377381D01*
X127571428Y-119425000D01*
X127476190Y-119520238D01*
X127428571Y-119615476D01*
X127380952Y-119805952D01*
X127380952Y-119948810D01*
X127428571Y-120139286D01*
X127476190Y-120234524D01*
X127571428Y-120329762D01*
X127714286Y-120377381D01*
X127952381Y-120377381D01*
X126761905Y-119377381D02*
X126571428Y-119377381D01*
X126476190Y-119425000D01*
X126380952Y-119520238D01*
X126333333Y-119710714D01*
X126333333Y-120044048D01*
X126380952Y-120234524D01*
X126476190Y-120329762D01*
X126571428Y-120377381D01*
X126761905Y-120377381D01*
X126857143Y-120329762D01*
X126952381Y-120234524D01*
X127000000Y-120044048D01*
X127000000Y-119710714D01*
X126952381Y-119520238D01*
X126857143Y-119425000D01*
X126761905Y-119377381D01*
X125904762Y-120377381D02*
X125904762Y-119377381D01*
X125571428Y-120091667D01*
X125238095Y-119377381D01*
X125238095Y-120377381D01*
X130261904Y-122952381D02*
X130595238Y-122476190D01*
X130833333Y-122952381D02*
X130833333Y-121952381D01*
X130452380Y-121952381D01*
X130357142Y-122000000D01*
X130309523Y-122047619D01*
X130261904Y-122142857D01*
X130261904Y-122285714D01*
X130309523Y-122380952D01*
X130357142Y-122428571D01*
X130452380Y-122476190D01*
X130833333Y-122476190D01*
X129880952Y-122666667D02*
X129404761Y-122666667D01*
X129976190Y-122952381D02*
X129642857Y-121952381D01*
X129309523Y-122952381D01*
X128976190Y-122952381D02*
X128976190Y-121952381D01*
X128500000Y-122952381D02*
X128500000Y-121952381D01*
X127928571Y-122952381D01*
X127928571Y-121952381D01*
X127119047Y-122428571D02*
X126976190Y-122476190D01*
X126928571Y-122523810D01*
X126880952Y-122619048D01*
X126880952Y-122761905D01*
X126928571Y-122857143D01*
X126976190Y-122904762D01*
X127071428Y-122952381D01*
X127452381Y-122952381D01*
X127452381Y-121952381D01*
X127119047Y-121952381D01*
X127023809Y-122000000D01*
X126976190Y-122047619D01*
X126928571Y-122142857D01*
X126928571Y-122238095D01*
X126976190Y-122333333D01*
X127023809Y-122380952D01*
X127119047Y-122428571D01*
X127452381Y-122428571D01*
X126261905Y-121952381D02*
X126071428Y-121952381D01*
X125976190Y-122000000D01*
X125880952Y-122095238D01*
X125833333Y-122285714D01*
X125833333Y-122619048D01*
X125880952Y-122809524D01*
X125976190Y-122904762D01*
X126071428Y-122952381D01*
X126261905Y-122952381D01*
X126357143Y-122904762D01*
X126452381Y-122809524D01*
X126500000Y-122619048D01*
X126500000Y-122285714D01*
X126452381Y-122095238D01*
X126357143Y-122000000D01*
X126261905Y-121952381D01*
X125500000Y-121952381D02*
X125261905Y-122952381D01*
X125071428Y-122238095D01*
X124880952Y-122952381D01*
X124642857Y-121952381D01*
X130285714Y-127250000D02*
X130380952Y-127202381D01*
X130523809Y-127202381D01*
X130666667Y-127250000D01*
X130761905Y-127345238D01*
X130809524Y-127440476D01*
X130857143Y-127630952D01*
X130857143Y-127773810D01*
X130809524Y-127964286D01*
X130761905Y-128059524D01*
X130666667Y-128154762D01*
X130523809Y-128202381D01*
X130428571Y-128202381D01*
X130285714Y-128154762D01*
X130238095Y-128107143D01*
X130238095Y-127773810D01*
X130428571Y-127773810D01*
X129809524Y-128202381D02*
X129809524Y-127202381D01*
X129238095Y-128202381D01*
X129238095Y-127202381D01*
X128761905Y-128202381D02*
X128761905Y-127202381D01*
X128523810Y-127202381D01*
X128380952Y-127250000D01*
X128285714Y-127345238D01*
X128238095Y-127440476D01*
X128190476Y-127630952D01*
X128190476Y-127773810D01*
X128238095Y-127964286D01*
X128285714Y-128059524D01*
X128380952Y-128154762D01*
X128523810Y-128202381D01*
X128761905Y-128202381D01*
X130466666Y-125128571D02*
X130323809Y-125176190D01*
X130276190Y-125223810D01*
X130228571Y-125319048D01*
X130228571Y-125461905D01*
X130276190Y-125557143D01*
X130323809Y-125604762D01*
X130419047Y-125652381D01*
X130800000Y-125652381D01*
X130800000Y-124652381D01*
X130466666Y-124652381D01*
X130371428Y-124700000D01*
X130323809Y-124747619D01*
X130276190Y-124842857D01*
X130276190Y-124938095D01*
X130323809Y-125033333D01*
X130371428Y-125080952D01*
X130466666Y-125128571D01*
X130800000Y-125128571D01*
X129228571Y-125652381D02*
X129561905Y-125176190D01*
X129800000Y-125652381D02*
X129800000Y-124652381D01*
X129419047Y-124652381D01*
X129323809Y-124700000D01*
X129276190Y-124747619D01*
X129228571Y-124842857D01*
X129228571Y-124985714D01*
X129276190Y-125080952D01*
X129323809Y-125128571D01*
X129419047Y-125176190D01*
X129800000Y-125176190D01*
X128800000Y-125128571D02*
X128466666Y-125128571D01*
X128323809Y-125652381D02*
X128800000Y-125652381D01*
X128800000Y-124652381D01*
X128323809Y-124652381D01*
X127942857Y-125366667D02*
X127466666Y-125366667D01*
X128038095Y-125652381D02*
X127704762Y-124652381D01*
X127371428Y-125652381D01*
X127180952Y-124652381D02*
X126609523Y-124652381D01*
X126895238Y-125652381D02*
X126895238Y-124652381D01*
X126276190Y-125652381D02*
X126276190Y-124652381D01*
X126276190Y-125128571D02*
X125704761Y-125128571D01*
X125704761Y-125652381D02*
X125704761Y-124652381D01*
X125228571Y-125128571D02*
X124895237Y-125128571D01*
X124752380Y-125652381D02*
X125228571Y-125652381D01*
X125228571Y-124652381D01*
X124752380Y-124652381D01*
D11*
X101028572Y-105107143D02*
X102171429Y-105107143D01*
X101600000Y-105678571D02*
X101600000Y-104535714D01*
D13*
X110050000Y-103400000D02*
X110050000Y-104400000D01*
X108350000Y-104400000D02*
X108350000Y-103400000D01*
X118550000Y-119200000D02*
X117850000Y-119200000D01*
X117850000Y-120400000D02*
X118550000Y-120400000D01*
D14*
X120181200Y-125613000D02*
X116218800Y-125613000D01*
X116218800Y-125613000D02*
X116218800Y-120787000D01*
X116218800Y-120787000D02*
X120181200Y-120787000D01*
X120181200Y-120787000D02*
X120181200Y-125613000D01*
X120181200Y-125105000D02*
X121273400Y-125105000D01*
X120181200Y-123835000D02*
X121273400Y-123835000D01*
X120181200Y-122565000D02*
X121273400Y-122565000D01*
X121273400Y-121295000D02*
X120181200Y-121295000D01*
X116218800Y-121295000D02*
X115126600Y-121295000D01*
X115126600Y-122565000D02*
X116218800Y-122565000D01*
X115126600Y-123835000D02*
X116218800Y-123835000D01*
X115126600Y-125105000D02*
X116218800Y-125105000D01*
X117427867Y-124876400D02*
G75*
G03X117427867Y-124876400I-472467J0D01*
G01*
D13*
X134550000Y-117500000D02*
X134550000Y-115950000D01*
X134550000Y-115950000D02*
X131450000Y-115950000D01*
X131450000Y-115950000D02*
X131450000Y-117500000D01*
X131730000Y-118770000D02*
X131730000Y-128930000D01*
X131730000Y-128930000D02*
X134270000Y-128930000D01*
X134270000Y-128930000D02*
X134270000Y-118770000D01*
X131730000Y-118770000D02*
X134270000Y-118770000D01*
X117700000Y-118675000D02*
X118700000Y-118675000D01*
X118700000Y-117325000D02*
X117700000Y-117325000D01*
X111657143Y-103733334D02*
X111704762Y-103685715D01*
X111752381Y-103542858D01*
X111752381Y-103447620D01*
X111704762Y-103304762D01*
X111609524Y-103209524D01*
X111514286Y-103161905D01*
X111323810Y-103114286D01*
X111180952Y-103114286D01*
X110990476Y-103161905D01*
X110895238Y-103209524D01*
X110800000Y-103304762D01*
X110752381Y-103447620D01*
X110752381Y-103542858D01*
X110800000Y-103685715D01*
X110847619Y-103733334D01*
X111752381Y-104685715D02*
X111752381Y-104114286D01*
X111752381Y-104400000D02*
X110752381Y-104400000D01*
X110895238Y-104304762D01*
X110990476Y-104209524D01*
X111038095Y-104114286D01*
X121366666Y-120157143D02*
X121414285Y-120204762D01*
X121557142Y-120252381D01*
X121652380Y-120252381D01*
X121795238Y-120204762D01*
X121890476Y-120109524D01*
X121938095Y-120014286D01*
X121985714Y-119823810D01*
X121985714Y-119680952D01*
X121938095Y-119490476D01*
X121890476Y-119395238D01*
X121795238Y-119300000D01*
X121652380Y-119252381D01*
X121557142Y-119252381D01*
X121414285Y-119300000D01*
X121366666Y-119347619D01*
X120985714Y-119347619D02*
X120938095Y-119300000D01*
X120842857Y-119252381D01*
X120604761Y-119252381D01*
X120509523Y-119300000D01*
X120461904Y-119347619D01*
X120414285Y-119442857D01*
X120414285Y-119538095D01*
X120461904Y-119680952D01*
X121033333Y-120252381D01*
X120414285Y-120252381D01*
D15*
X119554969Y-122468541D02*
X118805669Y-122468541D01*
X119483607Y-123253522D02*
X119519288Y-123217841D01*
X119554969Y-123110798D01*
X119554969Y-123039436D01*
X119519288Y-122932394D01*
X119447926Y-122861032D01*
X119376564Y-122825351D01*
X119233840Y-122789670D01*
X119126798Y-122789670D01*
X118984074Y-122825351D01*
X118912712Y-122861032D01*
X118841350Y-122932394D01*
X118805669Y-123039436D01*
X118805669Y-123110798D01*
X118841350Y-123217841D01*
X118877031Y-123253522D01*
X119554969Y-123967141D02*
X119554969Y-123538970D01*
X119554969Y-123753056D02*
X118805669Y-123753056D01*
X118912712Y-123681694D01*
X118984074Y-123610332D01*
X119019755Y-123538970D01*
D13*
X121366666Y-118452381D02*
X121700000Y-117976190D01*
X121938095Y-118452381D02*
X121938095Y-117452381D01*
X121557142Y-117452381D01*
X121461904Y-117500000D01*
X121414285Y-117547619D01*
X121366666Y-117642857D01*
X121366666Y-117785714D01*
X121414285Y-117880952D01*
X121461904Y-117928571D01*
X121557142Y-117976190D01*
X121938095Y-117976190D01*
X120985714Y-117547619D02*
X120938095Y-117500000D01*
X120842857Y-117452381D01*
X120604761Y-117452381D01*
X120509523Y-117500000D01*
X120461904Y-117547619D01*
X120414285Y-117642857D01*
X120414285Y-117738095D01*
X120461904Y-117880952D01*
X121033333Y-118452381D01*
X120414285Y-118452381D01*
M02*
