G04 #@! TF.FileFunction,Legend,Top*
%FSLAX46Y46*%
G04 Gerber Fmt 4.6, Leading zero omitted, Abs format (unit mm)*
G04 Created by KiCad (PCBNEW (2015-09-17 BZR 6202)-product) date Saturday, October 24, 2015 'PMt' 10:04:51 PM*
%MOMM*%
G01*
G04 APERTURE LIST*
%ADD10C,0.100000*%
%ADD11C,0.250000*%
%ADD12C,0.300000*%
%ADD13C,0.150000*%
%ADD14C,0.203200*%
%ADD15C,0.200000*%
G04 APERTURE END LIST*
D10*
D11*
X127238095Y-116952381D02*
X127476190Y-117952381D01*
X127666667Y-117238095D01*
X127857143Y-117952381D01*
X128095238Y-116952381D01*
X128428571Y-117666667D02*
X128904762Y-117666667D01*
X128333333Y-117952381D02*
X128666666Y-116952381D01*
X129000000Y-117952381D01*
X129333333Y-117952381D02*
X129333333Y-116952381D01*
X129904762Y-117952381D02*
X129476190Y-117380952D01*
X129904762Y-116952381D02*
X129333333Y-117523810D01*
X130333333Y-117428571D02*
X130666667Y-117428571D01*
X130809524Y-117952381D02*
X130333333Y-117952381D01*
X130333333Y-116952381D01*
X130809524Y-116952381D01*
X125714286Y-120327381D02*
X125380952Y-119851190D01*
X125142857Y-120327381D02*
X125142857Y-119327381D01*
X125523810Y-119327381D01*
X125619048Y-119375000D01*
X125666667Y-119422619D01*
X125714286Y-119517857D01*
X125714286Y-119660714D01*
X125666667Y-119755952D01*
X125619048Y-119803571D01*
X125523810Y-119851190D01*
X125142857Y-119851190D01*
X126095238Y-120041667D02*
X126571429Y-120041667D01*
X126000000Y-120327381D02*
X126333333Y-119327381D01*
X126666667Y-120327381D01*
X127000000Y-120327381D02*
X127000000Y-119327381D01*
X127571429Y-120327381D01*
X127571429Y-119327381D01*
X128047619Y-120327381D02*
X128047619Y-119327381D01*
X128285714Y-119327381D01*
X128428572Y-119375000D01*
X128523810Y-119470238D01*
X128571429Y-119565476D01*
X128619048Y-119755952D01*
X128619048Y-119898810D01*
X128571429Y-120089286D01*
X128523810Y-120184524D01*
X128428572Y-120279762D01*
X128285714Y-120327381D01*
X128047619Y-120327381D01*
X129238095Y-119327381D02*
X129428572Y-119327381D01*
X129523810Y-119375000D01*
X129619048Y-119470238D01*
X129666667Y-119660714D01*
X129666667Y-119994048D01*
X129619048Y-120184524D01*
X129523810Y-120279762D01*
X129428572Y-120327381D01*
X129238095Y-120327381D01*
X129142857Y-120279762D01*
X129047619Y-120184524D01*
X129000000Y-119994048D01*
X129000000Y-119660714D01*
X129047619Y-119470238D01*
X129142857Y-119375000D01*
X129238095Y-119327381D01*
X130095238Y-120327381D02*
X130095238Y-119327381D01*
X130428572Y-120041667D01*
X130761905Y-119327381D01*
X130761905Y-120327381D01*
X125238096Y-123052381D02*
X124904762Y-122576190D01*
X124666667Y-123052381D02*
X124666667Y-122052381D01*
X125047620Y-122052381D01*
X125142858Y-122100000D01*
X125190477Y-122147619D01*
X125238096Y-122242857D01*
X125238096Y-122385714D01*
X125190477Y-122480952D01*
X125142858Y-122528571D01*
X125047620Y-122576190D01*
X124666667Y-122576190D01*
X125619048Y-122766667D02*
X126095239Y-122766667D01*
X125523810Y-123052381D02*
X125857143Y-122052381D01*
X126190477Y-123052381D01*
X126523810Y-123052381D02*
X126523810Y-122052381D01*
X127000000Y-123052381D02*
X127000000Y-122052381D01*
X127571429Y-123052381D01*
X127571429Y-122052381D01*
X128380953Y-122528571D02*
X128523810Y-122576190D01*
X128571429Y-122623810D01*
X128619048Y-122719048D01*
X128619048Y-122861905D01*
X128571429Y-122957143D01*
X128523810Y-123004762D01*
X128428572Y-123052381D01*
X128047619Y-123052381D01*
X128047619Y-122052381D01*
X128380953Y-122052381D01*
X128476191Y-122100000D01*
X128523810Y-122147619D01*
X128571429Y-122242857D01*
X128571429Y-122338095D01*
X128523810Y-122433333D01*
X128476191Y-122480952D01*
X128380953Y-122528571D01*
X128047619Y-122528571D01*
X129238095Y-122052381D02*
X129428572Y-122052381D01*
X129523810Y-122100000D01*
X129619048Y-122195238D01*
X129666667Y-122385714D01*
X129666667Y-122719048D01*
X129619048Y-122909524D01*
X129523810Y-123004762D01*
X129428572Y-123052381D01*
X129238095Y-123052381D01*
X129142857Y-123004762D01*
X129047619Y-122909524D01*
X129000000Y-122719048D01*
X129000000Y-122385714D01*
X129047619Y-122195238D01*
X129142857Y-122100000D01*
X129238095Y-122052381D01*
X130000000Y-122052381D02*
X130238095Y-123052381D01*
X130428572Y-122338095D01*
X130619048Y-123052381D01*
X130857143Y-122052381D01*
X128714286Y-127200000D02*
X128619048Y-127152381D01*
X128476191Y-127152381D01*
X128333333Y-127200000D01*
X128238095Y-127295238D01*
X128190476Y-127390476D01*
X128142857Y-127580952D01*
X128142857Y-127723810D01*
X128190476Y-127914286D01*
X128238095Y-128009524D01*
X128333333Y-128104762D01*
X128476191Y-128152381D01*
X128571429Y-128152381D01*
X128714286Y-128104762D01*
X128761905Y-128057143D01*
X128761905Y-127723810D01*
X128571429Y-127723810D01*
X129190476Y-128152381D02*
X129190476Y-127152381D01*
X129761905Y-128152381D01*
X129761905Y-127152381D01*
X130238095Y-128152381D02*
X130238095Y-127152381D01*
X130476190Y-127152381D01*
X130619048Y-127200000D01*
X130714286Y-127295238D01*
X130761905Y-127390476D01*
X130809524Y-127580952D01*
X130809524Y-127723810D01*
X130761905Y-127914286D01*
X130714286Y-128009524D01*
X130619048Y-128104762D01*
X130476190Y-128152381D01*
X130238095Y-128152381D01*
X125133334Y-125128571D02*
X125276191Y-125176190D01*
X125323810Y-125223810D01*
X125371429Y-125319048D01*
X125371429Y-125461905D01*
X125323810Y-125557143D01*
X125276191Y-125604762D01*
X125180953Y-125652381D01*
X124800000Y-125652381D01*
X124800000Y-124652381D01*
X125133334Y-124652381D01*
X125228572Y-124700000D01*
X125276191Y-124747619D01*
X125323810Y-124842857D01*
X125323810Y-124938095D01*
X125276191Y-125033333D01*
X125228572Y-125080952D01*
X125133334Y-125128571D01*
X124800000Y-125128571D01*
X126371429Y-125652381D02*
X126038095Y-125176190D01*
X125800000Y-125652381D02*
X125800000Y-124652381D01*
X126180953Y-124652381D01*
X126276191Y-124700000D01*
X126323810Y-124747619D01*
X126371429Y-124842857D01*
X126371429Y-124985714D01*
X126323810Y-125080952D01*
X126276191Y-125128571D01*
X126180953Y-125176190D01*
X125800000Y-125176190D01*
X126800000Y-125128571D02*
X127133334Y-125128571D01*
X127276191Y-125652381D02*
X126800000Y-125652381D01*
X126800000Y-124652381D01*
X127276191Y-124652381D01*
X127657143Y-125366667D02*
X128133334Y-125366667D01*
X127561905Y-125652381D02*
X127895238Y-124652381D01*
X128228572Y-125652381D01*
X128419048Y-124652381D02*
X128990477Y-124652381D01*
X128704762Y-125652381D02*
X128704762Y-124652381D01*
X129323810Y-125652381D02*
X129323810Y-124652381D01*
X129323810Y-125128571D02*
X129895239Y-125128571D01*
X129895239Y-125652381D02*
X129895239Y-124652381D01*
X130371429Y-125128571D02*
X130704763Y-125128571D01*
X130847620Y-125652381D02*
X130371429Y-125652381D01*
X130371429Y-124652381D01*
X130847620Y-124652381D01*
D12*
X101028572Y-105107143D02*
X102171429Y-105107143D01*
X101600000Y-105678571D02*
X101600000Y-104535714D01*
D13*
X112400000Y-114350000D02*
X112400000Y-113650000D01*
X113600000Y-113650000D02*
X113600000Y-114350000D01*
X131350000Y-117500000D02*
X131350000Y-115950000D01*
X131350000Y-115950000D02*
X134450000Y-115950000D01*
X134450000Y-115950000D02*
X134450000Y-117500000D01*
X134170000Y-118770000D02*
X134170000Y-128930000D01*
X134170000Y-128930000D02*
X131630000Y-128930000D01*
X131630000Y-128930000D02*
X131630000Y-118770000D01*
X134170000Y-118770000D02*
X131630000Y-118770000D01*
X105170000Y-103870000D02*
X105170000Y-106410000D01*
X105450000Y-101050000D02*
X105450000Y-102600000D01*
X105170000Y-103870000D02*
X102630000Y-103870000D01*
X102350000Y-102600000D02*
X102350000Y-101050000D01*
X102350000Y-101050000D02*
X105450000Y-101050000D01*
X102630000Y-103870000D02*
X102630000Y-106410000D01*
X102630000Y-106410000D02*
X105170000Y-106410000D01*
X123675000Y-113500000D02*
X123675000Y-114500000D01*
X122325000Y-114500000D02*
X122325000Y-113500000D01*
D14*
X117000000Y-112350000D02*
X117750000Y-112800000D01*
X117750000Y-112800000D02*
X117750000Y-111900000D01*
X117750000Y-111900000D02*
X117000000Y-112350000D01*
X117000000Y-116500000D02*
X119000000Y-116500000D01*
X120500000Y-114500000D02*
X120500000Y-113500000D01*
X117000000Y-111500000D02*
X119000000Y-111500000D01*
X115500000Y-114500000D02*
X115500000Y-113500000D01*
D15*
X121850000Y-117000000D02*
X114150000Y-117000000D01*
X121850000Y-111000000D02*
X121850000Y-117000000D01*
X114150000Y-117000000D02*
X114150000Y-111000000D01*
X114150000Y-111000000D02*
X121850000Y-111000000D01*
D13*
X133286000Y-104000000D02*
G75*
G03X133286000Y-104000000I-2286000J0D01*
G01*
X107286000Y-125000000D02*
G75*
G03X107286000Y-125000000I-2286000J0D01*
G01*
X107286000Y-125000000D02*
G75*
G03X107286000Y-125000000I-2286000J0D01*
G01*
X111457143Y-114166666D02*
X111504762Y-114214285D01*
X111552381Y-114357142D01*
X111552381Y-114452380D01*
X111504762Y-114595238D01*
X111409524Y-114690476D01*
X111314286Y-114738095D01*
X111123810Y-114785714D01*
X110980952Y-114785714D01*
X110790476Y-114738095D01*
X110695238Y-114690476D01*
X110600000Y-114595238D01*
X110552381Y-114452380D01*
X110552381Y-114357142D01*
X110600000Y-114214285D01*
X110647619Y-114166666D01*
X110552381Y-113833333D02*
X110552381Y-113214285D01*
X110933333Y-113547619D01*
X110933333Y-113404761D01*
X110980952Y-113309523D01*
X111028571Y-113261904D01*
X111123810Y-113214285D01*
X111361905Y-113214285D01*
X111457143Y-113261904D01*
X111504762Y-113309523D01*
X111552381Y-113404761D01*
X111552381Y-113690476D01*
X111504762Y-113785714D01*
X111457143Y-113833333D01*
X102566667Y-108652381D02*
X102566667Y-107652381D01*
X102947620Y-107652381D01*
X103042858Y-107700000D01*
X103090477Y-107747619D01*
X103138096Y-107842857D01*
X103138096Y-107985714D01*
X103090477Y-108080952D01*
X103042858Y-108128571D01*
X102947620Y-108176190D01*
X102566667Y-108176190D01*
X103471429Y-107652381D02*
X103709524Y-108652381D01*
X103900001Y-107938095D01*
X104090477Y-108652381D01*
X104328572Y-107652381D01*
X105280953Y-108652381D02*
X104947619Y-108176190D01*
X104709524Y-108652381D02*
X104709524Y-107652381D01*
X105090477Y-107652381D01*
X105185715Y-107700000D01*
X105233334Y-107747619D01*
X105280953Y-107842857D01*
X105280953Y-107985714D01*
X105233334Y-108080952D01*
X105185715Y-108128571D01*
X105090477Y-108176190D01*
X104709524Y-108176190D01*
X125452381Y-114166666D02*
X124976190Y-114500000D01*
X125452381Y-114738095D02*
X124452381Y-114738095D01*
X124452381Y-114357142D01*
X124500000Y-114261904D01*
X124547619Y-114214285D01*
X124642857Y-114166666D01*
X124785714Y-114166666D01*
X124880952Y-114214285D01*
X124928571Y-114261904D01*
X124976190Y-114357142D01*
X124976190Y-114738095D01*
X125452381Y-113214285D02*
X125452381Y-113785714D01*
X125452381Y-113500000D02*
X124452381Y-113500000D01*
X124595238Y-113595238D01*
X124690476Y-113690476D01*
X124738095Y-113785714D01*
D15*
X112702381Y-114761905D02*
X113511905Y-114761905D01*
X113607143Y-114714286D01*
X113654762Y-114666667D01*
X113702381Y-114571429D01*
X113702381Y-114380952D01*
X113654762Y-114285714D01*
X113607143Y-114238095D01*
X113511905Y-114190476D01*
X112702381Y-114190476D01*
X113702381Y-113190476D02*
X113702381Y-113761905D01*
X113702381Y-113476191D02*
X112702381Y-113476191D01*
X112845238Y-113571429D01*
X112940476Y-113666667D01*
X112988095Y-113761905D01*
M02*
